Coordinates
version=1
nRows=4
nColumns=107
inDegrees=yes

Units are S.I. units (second, meters, Newtons, ...)
If the header above contains a line with 'inDegrees', this indicates whether rotational values are in degrees (yes) or radians (no).

endheader
time	sternoclavicular_r2	sternoclavicular_r3	unrotscap_r3	unrotscap_r2	acromioclavicular_r2	acromioclavicular_r3	acromioclavicular_r1	unrothum_r1	unrothum_r3	unrothum_r2	elv_angle	shoulder_elv	shoulder1_r2	shoulder_rot	elbow_flexion	pro_sup	deviation	flexion	proximal_distal_r1	proximal_distal_r3	cmc_flexion	cmc_abduction	mp_flexion	ip_flexion	mcp2_flexion	mcp2_abduction	pm2_flexion	md2_flexion	mcp3_flexion	mcp3_abduction	pm3_flexion	md3_flexion	mcp4_flexion	mcp4_abduction	pm4_flexion	md4_flexion	mcp5_flexion	mcp5_abduction	pm5_flexion	md5_flexion	bicpt_tx	bicpt_ty	bicpt_tz	bicpt2_tx	bicpt2_ty	bicpt2_tz	ptpt_tx	ptpt_ty	ptpt_tz	FCUpt_tx	FCUpt_ty	FCUpt_tz	EDCpt_tx	EDCpt_ty	EDCpt_tz	APLpt_tx	APLpt_ty	APLpt_tz	FPLpt_tx	FPLpt_ty	FPLpt_tz	FPLpt2_tx	FPLpt2_ty	FPLpt2_tz	PEC1pt2_tx	PEC1pt2_ty	PEC1pt2_tz	PEC1pt3_tx	PEC1pt3_ty	PEC1pt3_tz	PEC2pt2_tx	PEC2pt2_ty	PEC2pt2_tz	PEC2pt3_tx	PEC2pt3_ty	PEC2pt3_tz	PEC3pt2_tx	PEC3pt2_ty	PEC3pt2_tz	PEC3pt3_tx	PEC3pt3_ty	PEC3pt3_tz	DELT2pt2a_tx	DELT2pt2a_ty	DELT2pt2a_tz	DELT2pt2_tx	DELT2pt2_ty	DELT2pt2_tz	LAT1pt2_tx	LAT1pt2_ty	LAT1pt2_tz	LAT1pt3_tx	LAT1pt3_ty	LAT1pt3_tz	LAT2pt2_tx	LAT2pt2_ty	LAT2pt2_tz	LAT2pt3_tx	LAT2pt3_ty	LAT2pt3_tz	LAT3pt2_tx	LAT3pt2_ty	LAT3pt2_tz	LAT3pt3_tx	LAT3pt3_ty	LAT3pt3_tz
      0.76666667	     -0.32697507	      0.13849121	     -0.13849121	      0.32697507	     -0.06620580	      0.53505200	      0.24050219	     -0.24050219	     -0.53505200	      0.06620580	     98.38193504	     77.41425521	     -1.71708869	    -20.51980622	     31.49168330	     80.31154037	      0.30278297	      0.24643752	      0.33588094	      0.12321876	     17.95268087	    -11.66952822	     -8.66779177	     -0.96265594	     -0.87034140	     12.14848071	     30.29226591	     -3.59642116	      3.60326363	      5.72614687	     21.06228610	     16.70996929	     13.05917161	      0.36147345	     15.79326305	     21.99400970	     17.27211889	    -13.85349870	      8.55822729	      5.31878827	      0.00094165	     -0.03120943	     -0.00488138	      0.01479090	     -0.01875487	     -0.00202749	      0.00161588	     -0.06873710	     -0.00651953	      0.01208953	     -0.18242578	     -0.00006070	     -0.00963736	      0.00327084	     -0.00058333	     -0.00030299	     -0.00012120	     -0.00060598	     -0.00038782	     -0.00116347	     -0.00065445	      0.00001686	     -0.00026976	     -0.00032372	      0.00253747	      0.00890265	      0.00619315	     -0.00830054	      0.02004171	     -0.01900952	      0.00253747	      0.00890265	      0.00619315	      0.00055910	      0.01857944	     -0.00976281	      0.00399487	      0.00495065	      0.01608122	      0.00000000	      0.00801664	      0.00000000	     -0.00726834	     -0.03358921	     -0.00661138	      0.01407447	     -0.00044795	     -0.00348068	     -0.00090317	      0.01513880	     -0.00619315	      0.00249446	      0.02184804	     -0.01806334	     -0.00606412	      0.01311743	     -0.00554803	     -0.01264434	      0.02769712	     -0.03100874	     -0.02374039	      0.01466571	     -0.00744038	     -0.01574091	      0.03199792	     -0.03875017
      0.80000000	     -0.32765806	      0.13878049	     -0.13878049	      0.32765806	     -0.06634409	      0.53616962	      0.24100455	     -0.24100455	     -0.53616962	      0.06634409	     98.14094093	     77.57595889	     -1.71288255	    -19.75230391	     31.60387042	     80.48021543	      0.30536830	      0.22468479	      0.33810224	      0.11234239	     13.94736482	     -8.23792042	    -10.75776765	     -1.72042877	      5.45264747	     12.37896908	     32.04237951	     -2.48845934	      8.18738767	      5.86895991	     22.23366940	     17.21304364	     16.25705322	     -0.21269979	     17.56619791	     22.33109748	     19.06223938	    -13.79960606	     12.18621514	      5.37388411	      0.00094536	     -0.03122229	     -0.00488346	      0.01477563	     -0.01878535	     -0.00199993	      0.00160342	     -0.06874516	     -0.00653311	      0.01210861	     -0.18242033	     -0.00005676	     -0.00965760	      0.00327981	     -0.00058824	     -0.00027216	     -0.00010886	     -0.00054431	     -0.00034836	     -0.00104508	     -0.00058786	      0.00002602	     -0.00024061	     -0.00028874	      0.00254277	      0.00892124	      0.00620608	     -0.00831787	      0.02008357	     -0.01904922	      0.00254277	      0.00892124	      0.00620608	      0.00056027	      0.01861825	     -0.00978320	      0.00400091	      0.00496099	      0.01609567	      0.00000000	      0.00805041	      0.00000000	     -0.00728353	     -0.03365938	     -0.00663941	      0.01363292	     -0.00042434	     -0.00321267	     -0.00090505	      0.01517042	     -0.00620608	      0.00249967	      0.02189368	     -0.01810107	     -0.00607679	      0.01314483	     -0.00555962	     -0.01267075	      0.02775498	     -0.03107351	     -0.02378998	      0.01469635	     -0.00745592	     -0.01577379	      0.03206476	     -0.03883111
      0.83333333	     -0.32822560	      0.13902087	     -0.13902087	      0.32822560	     -0.06645901	      0.53709832	      0.24142200	     -0.24142200	     -0.53709832	      0.06645901	     97.98618611	     77.71032768	     -1.71018157	    -19.18624059	     31.57425185	     80.30558825	      0.30554867	      0.19953164	      0.33825681	      0.09976582	     10.70851406	     -5.06978725	    -12.29395646	     -2.33585098	     11.35000729	     12.56282665	     32.64732772	     -1.67203405	     12.20645346	      5.95483644	     22.75269587	     17.50467927	     18.70366409	     -0.71808969	     18.88599807	     22.47742299	     20.26572557	    -13.80031610	     16.17102838	      5.38878325	      0.00094438	     -0.03121889	     -0.00488291	      0.01479145	     -0.01877730	     -0.00202847	      0.00161632	     -0.06873681	     -0.00651905	      0.01208885	     -0.18242597	     -0.00006084	     -0.00963665	      0.00327053	     -0.00058316	     -0.00023748	     -0.00009499	     -0.00047496	     -0.00030397	     -0.00091191	     -0.00051295	      0.00003174	     -0.00020401	     -0.00024481	      0.00254717	      0.00893670	      0.00621683	     -0.00833228	      0.02011836	     -0.01908222	      0.00254717	      0.00893670	      0.00621683	      0.00056124	      0.01865049	     -0.00980014	      0.00400593	      0.00496958	      0.01610764	      0.00000000	      0.00807853	      0.00000000	     -0.00729614	     -0.03371768	     -0.00666275	      0.01330225	     -0.00040708	     -0.00302095	     -0.00090662	      0.01519670	     -0.00621683	      0.00250400	      0.02193160	     -0.01813243	     -0.00608731	      0.01316759	     -0.00556924	     -0.01269270	      0.02780305	     -0.03112733	     -0.02383119	      0.01472180	     -0.00746883	     -0.01580111	      0.03212030	     -0.03889837
      0.86666667	     -0.32810020	      0.13896776	     -0.13896776	      0.32810020	     -0.06643362	      0.53689312	      0.24132976	     -0.24132976	     -0.53689312	      0.06643362	     97.96598801	     77.68063820	     -1.70982905	    -19.30224688	     31.59027629	     80.46894099	      0.30160321	      0.18236733	      0.33486304	      0.09118366	      8.27634765	     -2.41205405	    -13.51846424	     -2.90259692	     15.98177433	     12.59582690	     32.64368629	     -1.00926455	     15.07441696	      6.00240662	     22.87522851	     17.68021560	     20.12453046	     -1.08996811	     19.71317617	     22.50067588	     20.62618469	    -13.81457037	     19.54104794	      5.40812640	      0.00094491	     -0.03122073	     -0.00488320	      0.01477665	     -0.01878165	     -0.00200178	      0.00160425	     -0.06874462	     -0.00653221	      0.01210734	     -0.18242070	     -0.00005703	     -0.00965625	      0.00327921	     -0.00058791	     -0.00021443	     -0.00008577	     -0.00042886	     -0.00027447	     -0.00082340	     -0.00046316	      0.00003476	     -0.00016886	     -0.00020263	      0.00254620	      0.00893328	      0.00621446	     -0.00832910	      0.02011067	     -0.01907493	      0.00254620	      0.00893328	      0.00621446	      0.00056103	      0.01864337	     -0.00979640	      0.00400482	      0.00496768	      0.01610500	      0.00000000	      0.00807232	      0.00000000	     -0.00729335	     -0.03370479	     -0.00665759	      0.01337038	     -0.00041060	     -0.00305981	     -0.00090627	      0.01519089	     -0.00621446	      0.00250304	      0.02192322	     -0.01812550	     -0.00608499	      0.01316256	     -0.00556712	     -0.01268785	      0.02779243	     -0.03111544	     -0.02382208	      0.01471618	     -0.00746598	     -0.01579508	      0.03210802	     -0.03888351
